# xmcd
#
# Track frame offsets:
#	150
#	22045
#	43075
#	58755
#	77280
#	96390
#	115882
#	131575
#	144300
#	161790
#	180580
#	199940
#	218002
#
# Disc length: 3138 seconds
#
# Revision: 1
# Processed by: cddbd v1.5.1PL0 Copyright (c) Steve Scherf et al.
# Submitted via: audiograbber 1.83.01
#
DISCID=b60c400d
DTITLE=Walter Morais - Pra Não Falar Em Cavalo
DYEAR=1900
DGENRE=Gaúcha
TTITLE0=Um Fandango No Meu Pago
TTITLE1=Leão Do Cajuru
TTITLE2=A Volta Do Tordilho Negro
TTITLE3=Cadência Marcada
TTITLE4=El Cardal
TTITLE5=Tatu Do Rabo Mole
TTITLE6=Pra Não Falar Em Cavalo
TTITLE7=Vaneira De Toda Gaita
TTITLE8=Jujos Do Coração
TTITLE9=é Isso Que A Gente Gosta
TTITLE10=No Arremate Do Dia
TTITLE11=Alma De Chamamé
TTITLE12=Rio Grande Do Sul
EXTD=
EXTT0=
EXTT1=
EXTT2=
EXTT3=
EXTT4=
EXTT5=
EXTT6=
EXTT7=
EXTT8=
EXTT9=
EXTT10=
EXTT11=
EXTT12=
PLAYORDER=
